<mxfile host="app.diagrams.net" modified="2024-01-01T00:00:00.000Z" agent="5.0" etag="xxx" version="22.1.16">
  <diagram name="RPC-Call-Architecture" id="rpc-call-architecture">
    <mxGraphModel dx="1422" dy="794" grid="1" gridSize="10" guides="1" tooltips="1" connect="1" arrows="1" fold="1" page="1" pageScale="1" pageWidth="1169" pageHeight="827" math="0" shadow="0">
      <root>
        <mxCell id="0" />
        <mxCell id="1" parent="0" />
        
        <!-- 客户端侧 -->
        <mxCell id="client-side" value="客户端侧" style="rounded=1;whiteSpace=wrap;html=1;fillColor=#e1d5e7;strokeColor=#9673a6;fontSize=14;fontStyle=1;" vertex="1" parent="1">
          <mxGeometry x="80" y="40" width="400" height="500" as="geometry" />
        </mxCell>
        
        <mxCell id="client-app" value="客户端应用程序" style="rounded=1;whiteSpace=wrap;html=1;fillColor=#fff2cc;strokeColor=#d6b656;" vertex="1" parent="1">
          <mxGeometry x="120" y="80" width="320" height="60" as="geometry" />
        </mxCell>
        
        <mxCell id="proxy-layer" value="代理层 (Proxy)" style="rounded=1;whiteSpace=wrap;html=1;fillColor=#dae8fc;strokeColor=#6c8ebf;" vertex="1" parent="1">
          <mxGeometry x="120" y="180" width="320" height="60" as="geometry" />
        </mxCell>
        
        <mxCell id="client-stub" value="客户端存根 (Client Stub)" style="rounded=1;whiteSpace=wrap;html=1;fillColor=#d5e8d4;strokeColor=#82b366;" vertex="1" parent="1">
          <mxGeometry x="120" y="280" width="320" height="60" as="geometry" />
        </mxCell>
        
        <mxCell id="serialization" value="序列化层" style="rounded=1;whiteSpace=wrap;html=1;fillColor=#ffe6cc;strokeColor=#d79b00;" vertex="1" parent="1">
          <mxGeometry x="120" y="380" width="150" height="60" as="geometry" />
        </mxCell>
        
        <mxCell id="client-network" value="网络传输层" style="rounded=1;whiteSpace=wrap;html=1;fillColor=#f8cecc;strokeColor=#b85450;" vertex="1" parent="1">
          <mxGeometry x="290" y="380" width="150" height="60" as="geometry" />
        </mxCell>
        
        <mxCell id="client-connection" value="连接管理" style="rounded=1;whiteSpace=wrap;html=1;fillColor=#e1d5e7;strokeColor=#9673a6;" vertex="1" parent="1">
          <mxGeometry x="120" y="480" width="320" height="40" as="geometry" />
        </mxCell>
        
        <!-- 网络层 -->
        <mxCell id="network-layer" value="网络传输" style="rounded=1;whiteSpace=wrap;html=1;fillColor=#f0f0f0;strokeColor=#666666;fontSize=14;fontStyle=1;" vertex="1" parent="1">
          <mxGeometry x="520" y="200" width="120" height="200" as="geometry" />
        </mxCell>
        
        <mxCell id="tcp-connection" value="TCP连接" style="rounded=1;whiteSpace=wrap;html=1;fillColor=#dae8fc;strokeColor=#6c8ebf;" vertex="1" parent="1">
          <mxGeometry x="540" y="230" width="80" height="40" as="geometry" />
        </mxCell>
        
        <mxCell id="message-queue" value="消息队列" style="rounded=1;whiteSpace=wrap;html=1;fillColor=#d5e8d4;strokeColor=#82b366;" vertex="1" parent="1">
          <mxGeometry x="540" y="290" width="80" height="40" as="geometry" />
        </mxCell>
        
        <mxCell id="error-handling" value="错误处理" style="rounded=1;whiteSpace=wrap;html=1;fillColor=#ffe6cc;strokeColor=#d79b00;" vertex="1" parent="1">
          <mxGeometry x="540" y="350" width="80" height="40" as="geometry" />
        </mxCell>
        
        <!-- 服务端侧 -->
        <mxCell id="server-side" value="服务端侧" style="rounded=1;whiteSpace=wrap;html=1;fillColor=#e1d5e7;strokeColor=#9673a6;fontSize=14;fontStyle=1;" vertex="1" parent="1">
          <mxGeometry x="680" y="40" width="400" height="500" as="geometry" />
        </mxCell>
        
        <mxCell id="server-connection" value="连接监听" style="rounded=1;whiteSpace=wrap;html=1;fillColor=#e1d5e7;strokeColor=#9673a6;" vertex="1" parent="1">
          <mxGeometry x="720" y="80" width="320" height="40" as="geometry" />
        </mxCell>
        
        <mxCell id="server-network" value="网络接收层" style="rounded=1;whiteSpace=wrap;html=1;fillColor=#f8cecc;strokeColor=#b85450;" vertex="1" parent="1">
          <mxGeometry x="720" y="140" width="150" height="60" as="geometry" />
        </mxCell>
        
        <mxCell id="deserialization" value="反序列化层" style="rounded=1;whiteSpace=wrap;html=1;fillColor=#ffe6cc;strokeColor=#d79b00;" vertex="1" parent="1">
          <mxGeometry x="890" y="140" width="150" height="60" as="geometry" />
        </mxCell>
        
        <mxCell id="server-stub" value="服务端存根 (Server Stub)" style="rounded=1;whiteSpace=wrap;html=1;fillColor=#d5e8d4;strokeColor=#82b366;" vertex="1" parent="1">
          <mxGeometry x="720" y="240" width="320" height="60" as="geometry" />
        </mxCell>
        
        <mxCell id="dispatcher" value="请求分发器 (Dispatcher)" style="rounded=1;whiteSpace=wrap;html=1;fillColor=#dae8fc;strokeColor=#6c8ebf;" vertex="1" parent="1">
          <mxGeometry x="720" y="340" width="320" height="60" as="geometry" />
        </mxCell>
        
        <mxCell id="server-app" value="服务端业务逻辑" style="rounded=1;whiteSpace=wrap;html=1;fillColor=#fff2cc;strokeColor=#d6b656;" vertex="1" parent="1">
          <mxGeometry x="720" y="440" width="320" height="60" as="geometry" />
        </mxCell>
        
        <!-- 调用流程箭头 -->
        <mxCell id="step1" value="1. 本地调用" style="endArrow=classic;html=1;strokeColor=#d79b00;strokeWidth=2;" edge="1" parent="1" source="client-app" target="proxy-layer">
          <mxGeometry width="50" height="50" relative="1" as="geometry">
            <mxPoint x="400" y="300" as="sourcePoint" />
            <mxPoint x="450" y="250" as="targetPoint" />
          </mxGeometry>
        </mxCell>
        
        <mxCell id="step2" value="2. 代理拦截" style="endArrow=classic;html=1;strokeColor=#6c8ebf;strokeWidth=2;" edge="1" parent="1" source="proxy-layer" target="client-stub">
          <mxGeometry width="50" height="50" relative="1" as="geometry">
            <mxPoint x="400" y="300" as="sourcePoint" />
            <mxPoint x="450" y="250" as="targetPoint" />
          </mxGeometry>
        </mxCell>
        
        <mxCell id="step3" value="3. 参数序列化" style="endArrow=classic;html=1;strokeColor=#82b366;strokeWidth=2;" edge="1" parent="1" source="client-stub" target="serialization">
          <mxGeometry width="50" height="50" relative="1" as="geometry">
            <mxPoint x="400" y="300" as="sourcePoint" />
            <mxPoint x="450" y="250" as="targetPoint" />
          </mxGeometry>
        </mxCell>
        
        <mxCell id="step4" value="4. 网络发送" style="endArrow=classic;html=1;strokeColor=#b85450;strokeWidth=2;" edge="1" parent="1" source="client-network" target="tcp-connection">
          <mxGeometry width="50" height="50" relative="1" as="geometry">
            <mxPoint x="400" y="300" as="sourcePoint" />
            <mxPoint x="450" y="250" as="targetPoint" />
          </mxGeometry>
        </mxCell>
        
        <mxCell id="step5" value="5. 网络传输" style="endArrow=classic;html=1;strokeColor=#666666;strokeWidth=2;" edge="1" parent="1" source="tcp-connection" target="server-network">
          <mxGeometry width="50" height="50" relative="1" as="geometry">
            <mxPoint x="400" y="300" as="sourcePoint" />
            <mxPoint x="450" y="250" as="targetPoint" />
          </mxGeometry>
        </mxCell>
        
        <mxCell id="step6" value="6. 参数反序列化" style="endArrow=classic;html=1;strokeColor=#d79b00;strokeWidth=2;" edge="1" parent="1" source="deserialization" target="server-stub">
          <mxGeometry width="50" height="50" relative="1" as="geometry">
            <mxPoint x="400" y="300" as="sourcePoint" />
            <mxPoint x="450" y="250" as="targetPoint" />
          </mxGeometry>
        </mxCell>
        
        <mxCell id="step7" value="7. 请求分发" style="endArrow=classic;html=1;strokeColor=#6c8ebf;strokeWidth=2;" edge="1" parent="1" source="server-stub" target="dispatcher">
          <mxGeometry width="50" height="50" relative="1" as="geometry">
            <mxPoint x="400" y="300" as="sourcePoint" />
            <mxPoint x="450" y="250" as="targetPoint" />
          </mxGeometry>
        </mxCell>
        
        <mxCell id="step8" value="8. 业务处理" style="endArrow=classic;html=1;strokeColor=#82b366;strokeWidth=2;" edge="1" parent="1" source="dispatcher" target="server-app">
          <mxGeometry width="50" height="50" relative="1" as="geometry">
            <mxPoint x="400" y="300" as="sourcePoint" />
            <mxPoint x="450" y="250" as="targetPoint" />
          </mxGeometry>
        </mxCell>
        
        <!-- 返回流程 (虚线) -->
        <mxCell id="return-flow" value="9-12. 返回流程" style="endArrow=classic;html=1;strokeColor=#9673a6;strokeWidth=2;dashed=1;" edge="1" parent="1" source="server-app" target="client-app">
          <mxGeometry width="50" height="50" relative="1" as="geometry">
            <mxPoint x="400" y="300" as="sourcePoint" />
            <mxPoint x="450" y="250" as="targetPoint" />
            <Array as="points">
              <mxPoint x="880" y="580" />
              <mxPoint x="280" y="580" />
            </Array>
          </mxGeometry>
        </mxCell>
        
      </root>
    </mxGraphModel>
  </diagram>
</mxfile>
